<?xml version="1.0" encoding="UTF-8"?>
<svg version="1.1" xmlns="http://www.w3.org/2000/svg" width="151" height="148">
<path d="M0 0 C2.48044315 3.72066472 2.44381173 6.86540474 2.625 11.1875 C2.68300781 12.31188477 2.68300781 12.31188477 2.7421875 13.45898438 C2.83628216 15.30559199 2.91922319 17.1527619 3 19 C3.01417969 17.97519531 3.02835938 16.95039062 3.04296875 15.89453125 C3.08989016 14.53381029 3.13813744 13.17313459 3.1875 11.8125 C3.19330078 11.13896484 3.19910156 10.46542969 3.20507812 9.77148438 C3.37624757 5.87262474 3.91316495 4.10854381 6.375 1.03125 C9 -1 9 -1 11.8125 -1.3125 C12.534375 -1.209375 13.25625 -1.10625 14 -1 C14 -0.34 14 0.32 14 1 C15.216875 1.20625 16.43375 1.4125 17.6875 1.625 C22.38075339 2.79005058 24.1600522 5.08547736 27 9 C27.886875 9.825 28.77375 10.65 29.6875 11.5 C32.27540598 14.2977362 32.94448289 16.38108418 34 20 C34.5775 20.825 35.155 21.65 35.75 22.5 C37 25 37 25 36.1875 28.3125 C35.795625 29.199375 35.40375 30.08625 35 31 C35.66 31.66 36.32 32.32 37 33 C36.625 36.625 36.625 36.625 36 40 C35.34 40 34.68 40 34 40 C33.87044922 40.90492187 33.87044922 40.90492187 33.73828125 41.828125 C32.57632933 48.4373928 32.57632933 48.4373928 29.375 51.5625 C28.59125 52.036875 27.8075 52.51125 27 53 C26.01 52.505 26.01 52.505 25 52 C24.8453125 53.175625 24.8453125 53.175625 24.6875 54.375 C24 57 24 57 21 59 C17.8125 59.125 17.8125 59.125 15 59 C14.505 59.99 14.505 59.99 14 61 C7.375 61.25 7.375 61.25 4 59 C3.5234375 57.08984375 3.5234375 57.08984375 3.375 54.9375 C3.44379184 51.23149803 3.44379184 51.23149803 2 50 C2 53.63 2 57.26 2 61 C7.32212148 61.79265639 12.6496441 62.42978066 18 63 C17.125 67.75 17.125 67.75 16 70 C16 71.06605469 16 72.13210937 16 73.23046875 C16 83.60842105 16 83.60842105 13.14453125 87.58203125 C9.62825726 90.47397518 7.21830917 91.95487744 2.625 92.125 C0.05732063 91.02456598 -1.37441358 90.25775892 -3 88 C-3 87.34 -3 86.68 -3 86 C-4.485 86.495 -4.485 86.495 -6 87 C-6.93423645 83.98968256 -7.04449911 83.13349732 -6 80 C-6.66 80 -7.32 80 -8 80 C-8.38218767 78.34385343 -8.71395102 76.67542976 -9 75 C-8.67 74.67 -8.34 74.34 -8 74 C-7.7499227 71.54190002 -7.7499227 71.54190002 -8 69 C-8.66 68.34 -9.32 67.68 -10 67 C-9.96712417 64.27130593 -9.43602229 61.7033382 -9 59 C-9.825 59.144375 -10.65 59.28875 -11.5 59.4375 C-17.25960915 58.71754886 -20.77200526 54.71317411 -24.36328125 50.33984375 C-26.26906121 47.63017115 -27.31969242 45.20716432 -28 42 C-28.515625 40.80375 -29.03125 39.6075 -29.5625 38.375 C-31 35 -31 35 -31 33 C-30.34 33 -29.68 33 -29 33 C-29.391875 32.154375 -29.78375 31.30875 -30.1875 30.4375 C-31.07259938 26.6928488 -30.63187801 25.2940534 -28.91796875 21.93359375 C-27.8810798 19.74950852 -27.27721956 17.57612411 -26.625 15.25 C-25.33660131 11.23562092 -25.33660131 11.23562092 -22.5 9.25 C-21.675 8.8375 -20.85 8.425 -20 8 C-19.566875 7.175 -19.13375 6.35 -18.6875 5.5 C-16.21966819 1.84395287 -13.07198816 1.2795207 -9 0 C-5.85135005 -1.57432497 -3.35512575 -0.71895552 0 0 Z M3 38 C3 41 3 41 3 41 Z M2 41 C2 42.65 2 44.3 2 46 C2.33 46 2.66 46 3 46 C3 44.35 3 42.7 3 41 C2.67 41 2.34 41 2 41 Z M2 47 C2 47.66 2 48.32 2 49 C2.66 48.67 3.32 48.34 4 48 C3.34 47.67 2.68 47.34 2 47 Z M-8 60 C-7.67 60.99 -7.34 61.98 -7 63 C-7 62.01 -7 61.02 -7 60 C-7.33 60 -7.66 60 -8 60 Z M-2 61 C-2 61.66 -2 62.32 -2 63 C-1.01 62.67 -0.02 62.34 1 62 C0.01 61.67 -0.98 61.34 -2 61 Z M0 68 C0.66 68.66 1.32 69.32 2 70 C2 69.34 2 68.68 2 68 C1.34 68 0.68 68 0 68 Z M5 68 C5.33 68.66 5.66 69.32 6 70 C6.33 69.34 6.66 68.68 7 68 C6.34 68 5.68 68 5 68 Z M9 68 C9.33 69.65 9.66 71.3 10 73 C10.66 71.68 11.32 70.36 12 69 C11.01 68.67 10.02 68.34 9 68 Z M5 71 C6 73 6 73 6 73 Z M-1 73 C-0.34 73.66 0.32 74.32 1 75 C1 74.34 1 73.68 1 73 C0.34 73 -0.32 73 -1 73 Z M5 75 C6 77 6 77 6 77 Z M10 76 C11 79 11 79 11 79 Z M0 79 C1 81 1 81 1 81 Z " fill="#D68840" transform="translate(70,34)"/>
<path d="M0 0 C0 0.66 0 1.32 0 2 C1.216875 2.20625 2.43375 2.4125 3.6875 2.625 C8.38075339 3.79005058 10.1600522 6.08547736 13 10 C13.886875 10.825 14.77375 11.65 15.6875 12.5 C18.27540598 15.2977362 18.94448289 17.38108418 20 21 C20.5775 21.825 21.155 22.65 21.75 23.5 C23 26 23 26 22.1875 29.3125 C21.795625 30.199375 21.40375 31.08625 21 32 C21.66 32.66 22.32 33.32 23 34 C22.625 37.625 22.625 37.625 22 41 C21.34 41 20.68 41 20 41 C19.91363281 41.60328125 19.82726562 42.2065625 19.73828125 42.828125 C18.57632933 49.4373928 18.57632933 49.4373928 15.375 52.5625 C14.59125 53.036875 13.8075 53.51125 13 54 C12.34 53.67 11.68 53.34 11 53 C10.896875 53.78375 10.79375 54.5675 10.6875 55.375 C10 58 10 58 7 60 C3.8125 60.125 3.8125 60.125 1 60 C0.67 60.66 0.34 61.32 0 62 C-3.375 62.1875 -3.375 62.1875 -7 62 C-9.23893878 58.64159183 -9.25992921 57.49622572 -9.29052734 53.56640625 C-9.30328705 52.45515381 -9.31604675 51.34390137 -9.32919312 50.19897461 C-9.33141876 48.99893799 -9.33364441 47.79890137 -9.3359375 46.5625 C-9.3425943 45.33088135 -9.3492511 44.0992627 -9.35610962 42.83032227 C-9.36624169 40.22446183 -9.37092647 37.61857542 -9.37060547 35.01269531 C-9.37044244 32.33729152 -9.38439733 29.66256887 -9.41162109 26.98730469 C-9.44814012 23.1371554 -9.4580725 19.28780481 -9.4609375 15.4375 C-9.47530853 14.23746338 -9.48967957 13.03742676 -9.50448608 11.80102539 C-9.49833282 10.68977295 -9.49217957 9.57852051 -9.48583984 8.43359375 C-9.48868988 7.45447021 -9.49153992 6.47534668 -9.49447632 5.46655273 C-9 3 -9 3 -7.14151001 1.17211914 C-4.58116585 -0.22924176 -2.87646568 -0.23970547 0 0 Z " fill="#469767" transform="translate(84,33)"/>
<path d="M0 0 C1.134375 0.020625 2.26875 0.04125 3.4375 0.0625 C3.4375 1.3825 3.4375 2.7025 3.4375 4.0625 C2.7775 4.0625 2.1175 4.0625 1.4375 4.0625 C1.61667969 4.67738281 1.79585938 5.29226562 1.98046875 5.92578125 C2.19316406 6.73402344 2.40585938 7.54226562 2.625 8.375 C2.84542969 9.17550781 3.06585938 9.97601563 3.29296875 10.80078125 C3.4375 13.0625 3.4375 13.0625 1.98828125 14.85546875 C1.47652344 15.25378906 0.96476562 15.65210938 0.4375 16.0625 C-0.48215822 12.15395257 -0.5625 9.23914661 -0.5625 5.0625 C-1.2225 9.6825 -1.8825 14.3025 -2.5625 19.0625 C-1.325 19.041875 -0.0875 19.02125 1.1875 19 C4.1015825 18.99483319 6.64703327 19.13234442 9.4375 20.0625 C9.4375 20.7225 9.4375 21.3825 9.4375 22.0625 C8.7775 22.3925 8.1175 22.7225 7.4375 23.0625 C6.77977572 26.09184491 6.77977572 26.09184491 6.4375 29.0625 C7.0975 29.3925 7.7575 29.7225 8.4375 30.0625 C7.4475 30.0625 6.4575 30.0625 5.4375 30.0625 C5.4375 32.3725 5.4375 34.6825 5.4375 37.0625 C8.0775 37.3925 10.7175 37.7225 13.4375 38.0625 C10.4375 40.0625 10.4375 40.0625 7.4375 40.0625 C7.4375 42.0425 7.4375 44.0225 7.4375 46.0625 C9.4175 46.0625 11.3975 46.0625 13.4375 46.0625 C13.4375 44.0825 13.4375 42.1025 13.4375 40.0625 C14.0975 40.0625 14.7575 40.0625 15.4375 40.0625 C15.4375 42.0425 15.4375 44.0225 15.4375 46.0625 C16.0975 46.0625 16.7575 46.0625 17.4375 46.0625 C17.4375 47.3825 17.4375 48.7025 17.4375 50.0625 C16.7775 50.0625 16.1175 50.0625 15.4375 50.0625 C15.334375 51.01125 15.23125 51.96 15.125 52.9375 C14.4375 56.0625 14.4375 56.0625 11.4375 58.0625 C8.25 58.1875 8.25 58.1875 5.4375 58.0625 C5.1075 58.7225 4.7775 59.3825 4.4375 60.0625 C1.0625 60.25 1.0625 60.25 -2.5625 60.0625 C-4.81504239 56.68368641 -4.81114001 55.55162551 -4.80541992 51.59716797 C-4.80849655 50.47946014 -4.81157318 49.36175232 -4.81474304 48.21017456 C-4.80755753 47.00386383 -4.80037201 45.7975531 -4.79296875 44.5546875 C-4.79251053 43.3183255 -4.79205231 42.0819635 -4.7915802 40.80813599 C-4.78778274 37.52378511 -4.77477257 34.23962751 -4.75811768 30.95532227 C-4.74464714 27.60693125 -4.74784193 24.2585734 -4.74804688 20.91015625 C-4.74313226 18.37499799 -4.73730419 15.83984131 -4.73046875 13.3046875 C-4.72935593 12.09432831 -4.7282431 10.88396912 -4.72709656 9.63693237 C-4.71752678 7.96982712 -4.71752678 7.96982712 -4.70776367 6.26904297 C-4.70395187 5.28547821 -4.70014008 4.30191345 -4.69621277 3.2885437 C-4.47259159 -0.43429085 -3.88625116 0.06817984 0 0 Z " fill="#57916E" transform="translate(79.5625,34.9375)"/>
<path d="M0 0 C8.58 0 17.16 0 26 0 C25.690625 2.8875 25.38125 5.775 25.0625 8.75 C24.96718994 9.65331055 24.87187988 10.55662109 24.77368164 11.48730469 C24.65561157 12.56866699 24.65561157 12.56866699 24.53515625 13.671875 C24.456604 14.4050293 24.37805176 15.13818359 24.29711914 15.89355469 C23.66061881 20.40606482 23.01195123 22.47273077 19.3125 25.3125 C16.3742745 27.39769229 15.3810927 27.99280957 11.6875 28.0625 C9.03879124 27.01533607 7.6549343 26.29851986 6 24 C6 23.34 6 22.68 6 22 C5.01 22.33 4.02 22.66 3 23 C2.06576355 19.98968256 1.95550089 19.13349732 3 16 C2.34 16 1.68 16 1 16 C0.61781233 14.34385343 0.28604898 12.67542976 0 11 C0.33 10.67 0.66 10.34 1 10 C1.20177399 6.36806821 0.73182484 3.65912418 0 0 Z M9 4 C9.66 4.66 10.32 5.32 11 6 C11 5.34 11 4.68 11 4 C10.34 4 9.68 4 9 4 Z M14 4 C14.33 4.66 14.66 5.32 15 6 C15.33 5.34 15.66 4.68 16 4 C15.34 4 14.68 4 14 4 Z M18 4 C18.33 5.65 18.66 7.3 19 9 C19.66 7.68 20.32 6.36 21 5 C20.01 4.67 19.02 4.34 18 4 Z M14 7 C15 9 15 9 15 9 Z M8 9 C8.66 9.66 9.32 10.32 10 11 C10 10.34 10 9.68 10 9 C9.34 9 8.68 9 8 9 Z M14 11 C15 13 15 13 15 13 Z M19 12 C20 15 20 15 20 15 Z M9 15 C10 17 10 17 10 17 Z " fill="#BBC3C6" transform="translate(61,98)"/>
<path d="M0 0 C0.33 0 0.66 0 1 0 C1.02531484 7.35065985 1.04285202 14.7013085 1.05493164 22.05200195 C1.05996641 24.55363383 1.06679461 27.05526276 1.07543945 29.55688477 C1.08754238 33.14860766 1.09323682 36.74029172 1.09765625 40.33203125 C1.10281754 41.45398392 1.10797882 42.57593658 1.11329651 43.73188782 C1.11340981 45.29316658 1.11340981 45.29316658 1.11352539 46.88598633 C1.115746 47.80309891 1.11796661 48.72021149 1.12025452 49.66511536 C1 52 1 52 0 55 C-5.75 56.125 -5.75 56.125 -8 55 C-9.43683799 54.92378266 -10.87453728 54.86325163 -12.3125 54.8125 C-15.91086948 54.45846687 -17.68670183 53.88993753 -20.0625 51.125 C-22 48 -22 48 -22 45 C-20.02 45 -18.04 45 -16 45 C-15.34 43.02 -14.68 41.04 -14 39 C-14.99 39.99 -15.98 40.98 -17 42 C-17.66 41.67 -18.32 41.34 -19 41 C-19 40.01 -19 39.02 -19 38 C-17.515 37.505 -17.515 37.505 -16 37 C-15.67 34.36 -15.34 31.72 -15 29 C-14.01 29 -13.02 29 -12 29 C-10.33325679 31.91824244 -9.7567992 33.97594379 -9.8046875 37.328125 C-9.81435547 38.52695313 -9.81435547 38.52695313 -9.82421875 39.75 C-9.84097656 40.575 -9.85773437 41.4 -9.875 42.25 C-9.88402344 43.09046875 -9.89304687 43.9309375 -9.90234375 44.796875 C-9.92584183 46.86470604 -9.96171092 48.93238995 -10 51 C-9.01 51 -8.02 51 -7 51 C-6.67 50.01 -6.34 49.02 -6 48 C-6.66 48 -7.32 48 -8 48 C-8 47.34 -8 46.68 -8 46 C-7.34 46 -6.68 46 -6 46 C-5.67 45.01 -5.34 44.02 -5 43 C-4.34 43.33 -3.68 43.66 -3 44 C-3 45.65 -3 47.3 -3 49 C-3.66 49 -4.32 49 -5 49 C-4.01 50.32 -3.02 51.64 -2 53 C-1.97289877 50.4374282 -1.95311229 47.87514635 -1.9375 45.3125 C-1.92912109 44.59126953 -1.92074219 43.87003906 -1.91210938 43.12695312 C-1.89448811 39.26789669 -2.1739968 35.76213221 -3 32 C-2.6937566 30.66018514 -2.36548445 29.32488113 -2 28 C-2.33 27.34 -2.66 26.68 -3 26 C-2.34 26 -1.68 26 -1 26 C-1.185625 25.29875 -1.37125 24.5975 -1.5625 23.875 C-2.05156976 20.66111302 -1.66231558 18.16439664 -1 15 C-1.66 15 -2.32 15 -3 15 C-3.33 15.66 -3.66 16.32 -4 17 C-4.12375 16.2575 -4.2475 15.515 -4.375 14.75 C-4.95486701 12.19858515 -5.73708739 10.2732427 -7 8 C-5.02 9.32 -3.04 10.64 -1 12 C-1.020625 10.948125 -1.04125 9.89625 -1.0625 8.8125 C-1.01103198 5.67295096 -0.73482813 3.03116604 0 0 Z " fill="#D47F45" transform="translate(70,38)"/>
<path d="M0 0 C0.33 0 0.66 0 1 0 C1 7 1 14 1 21 C1.33 21.99 1.66 22.98 2 24 C2 24.99 2 25.98 2 27 C1.01 27 0.02 27 -1 27 C-1.1546875 28.918125 -1.1546875 28.918125 -1.3125 30.875 C-1.48828125 33.0546875 -1.48828125 33.0546875 -2 35 C-2.99 35.66 -3.98 36.32 -5 37 C-4.34 37.66 -3.68 38.32 -3 39 C-1.68 38.01 -0.36 37.02 1 36 C1 40.29 1 44.58 1 49 C0.01 48.34 -0.98 47.68 -2 47 C-2 45.68 -2 44.36 -2 43 C-3.98 43 -5.96 43 -8 43 C-8.33 43.99 -8.66 44.98 -9 46 C-11.35118753 42.66283061 -13.15453514 39.98576293 -14 36 C-14.515625 34.80375 -15.03125 33.6075 -15.5625 32.375 C-17 29 -17 29 -17 27 C-16.34 27 -15.68 27 -15 27 C-15.556875 25.6078125 -15.556875 25.6078125 -16.125 24.1875 C-16.41375 23.135625 -16.7025 22.08375 -17 21 C-15 18 -15 18 -12 17 C-11.8984595 21.7724033 -12.19416859 26.3446104 -12.78125 31.08203125 C-13.03777277 33.00945241 -13.03777277 33.00945241 -13 35 C-11.11683841 36.10836423 -11.11683841 36.10836423 -9 37 C-8.01 36.505 -8.01 36.505 -7 36 C-7.66 35.67 -8.32 35.34 -9 35 C-9.02700675 32.08327116 -9.04684237 29.16679323 -9.0625 26.25 C-9.07087891 25.425 -9.07925781 24.6 -9.08789062 23.75 C-9.09111328 22.95078125 -9.09433594 22.1515625 -9.09765625 21.328125 C-9.10289307 20.5949707 -9.10812988 19.86181641 -9.11352539 19.10644531 C-9 17 -9 17 -8.43139648 14.91699219 C-7.78072715 12.79649592 -7.78072715 12.79649592 -9 10 C-8.34 10 -7.68 10 -7 10 C-6.67 8.68 -6.34 7.36 -6 6 C-5.67 14.25 -5.34 22.5 -5 31 C-4.34 31 -3.68 31 -3 31 C-3 30.01 -3 29.02 -3 28 C-3.66 28 -4.32 28 -5 28 C-5 20.74 -5 13.48 -5 6 C-4.01 6 -3.02 6 -2 6 C-1.67 5.01 -1.34 4.02 -1 3 C-1 4.32 -1 5.64 -1 7 C-1.99 7 -2.98 7 -4 7 C-4 13.27 -4 19.54 -4 26 C-2.60843516 24.83722968 -2.60843516 24.83722968 -2.90234375 21.62109375 C-2.90901631 20.22652923 -2.92097468 18.83198257 -2.9375 17.4375 C-2.94201172 16.72658203 -2.94652344 16.01566406 -2.95117188 15.28320312 C-2.96299136 13.52209987 -2.98092737 11.76103964 -3 10 C-2.34 10 -1.68 10 -1 10 C-0.67 6.7 -0.34 3.4 0 0 Z " fill="#FABE78" transform="translate(56,40)"/>
<path d="M0 0 C1.134375 0.020625 2.26875 0.04125 3.4375 0.0625 C3.4375 1.3825 3.4375 2.7025 3.4375 4.0625 C2.7775 4.0625 2.1175 4.0625 1.4375 4.0625 C1.61667969 4.67738281 1.79585938 5.29226562 1.98046875 5.92578125 C2.19316406 6.73402344 2.40585938 7.54226562 2.625 8.375 C2.84542969 9.17550781 3.06585938 9.97601563 3.29296875 10.80078125 C3.4375 13.0625 3.4375 13.0625 1.98828125 14.85546875 C1.47652344 15.25378906 0.96476562 15.65210938 0.4375 16.0625 C-0.48215822 12.15395257 -0.5625 9.23914661 -0.5625 5.0625 C-1.2225 9.6825 -1.8825 14.3025 -2.5625 19.0625 C-1.325 19.041875 -0.0875 19.02125 1.1875 19 C4.1015825 18.99483319 6.64703327 19.13234442 9.4375 20.0625 C9.4375 20.7225 9.4375 21.3825 9.4375 22.0625 C8.7775 22.3925 8.1175 22.7225 7.4375 23.0625 C6.77977572 26.09184491 6.77977572 26.09184491 6.4375 29.0625 C7.0975 29.3925 7.7575 29.7225 8.4375 30.0625 C7.4475 30.0625 6.4575 30.0625 5.4375 30.0625 C5.4375 32.3725 5.4375 34.6825 5.4375 37.0625 C8.0775 37.3925 10.7175 37.7225 13.4375 38.0625 C10.4375 40.0625 10.4375 40.0625 7.4375 40.0625 C7.4375 42.0425 7.4375 44.0225 7.4375 46.0625 C9.4175 46.0625 11.3975 46.0625 13.4375 46.0625 C13.4375 44.0825 13.4375 42.1025 13.4375 40.0625 C14.0975 40.0625 14.7575 40.0625 15.4375 40.0625 C15.4375 42.0425 15.4375 44.0225 15.4375 46.0625 C16.0975 46.0625 16.7575 46.0625 17.4375 46.0625 C17.4375 47.3825 17.4375 48.7025 17.4375 50.0625 C14.4375 52.0625 14.4375 52.0625 11.4375 52.0625 C11.1075 51.4025 10.7775 50.7425 10.4375 50.0625 C8.54985097 49.37777335 8.54985097 49.37777335 6.375 48.9375 C5.64152344 48.76992187 4.90804687 48.60234375 4.15234375 48.4296875 C3.30349609 48.24792969 3.30349609 48.24792969 2.4375 48.0625 C3.9225 47.5675 3.9225 47.5675 5.4375 47.0625 C5.4375 44.7525 5.4375 42.4425 5.4375 40.0625 C4.4475 39.7325 3.4575 39.4025 2.4375 39.0625 C3.0975 39.0625 3.7575 39.0625 4.4375 39.0625 C4.4375 36.4225 4.4375 33.7825 4.4375 31.0625 C2.7875 30.7325 1.1375 30.4025 -0.5625 30.0625 C2.4375 29.0625 2.4375 29.0625 5.4375 29.0625 C5.4375 26.7525 5.4375 24.4425 5.4375 22.0625 C4.65375 22.248125 3.87 22.43375 3.0625 22.625 C0.4375 23.0625 0.4375 23.0625 -1.5625 22.0625 C-1.541875 23.25875 -1.52125 24.455 -1.5 25.6875 C-1.49367429 29.24254869 -1.86361125 32.56805624 -2.5625 36.0625 C-5.06756416 32.30490377 -4.80695436 30.29269783 -4.79296875 25.8046875 C-4.79251053 25.10103058 -4.79205231 24.39737366 -4.7915802 23.6723938 C-4.78856325 22.18799143 -4.78069356 20.70359207 -4.76831055 19.21923828 C-4.75001215 16.9390145 -4.74780121 14.65919591 -4.74804688 12.37890625 C-4.7061285 0.08256366 -4.7061285 0.08256366 0 0 Z " fill="#27844F" transform="translate(79.5625,34.9375)"/>
<path d="M0 0 C-0.33 0.66 -0.66 1.32 -1 2 C-3.31 1.67 -5.62 1.34 -8 1 C-8 1.66 -8 2.32 -8 3 C-10.64 3.33 -13.28 3.66 -16 4 C-16 6.64 -16 9.28 -16 12 C-16.99 12 -17.98 12 -19 12 C-19 19.26 -19 26.52 -19 34 C-18.34 34 -17.68 34 -17 34 C-17 34.99 -17 35.98 -17 37 C-18.485 37.495 -18.485 37.495 -20 38 C-20.33 30.74 -20.66 23.48 -21 16 C-21.66 16 -22.32 16 -23 16 C-22.34 16.66 -21.68 17.32 -21 18 C-20.77294922 20.24658203 -20.77294922 20.24658203 -20.8046875 23.0078125 C-20.81435547 24.48701172 -20.81435547 24.48701172 -20.82421875 25.99609375 C-20.84097656 27.02863281 -20.85773437 28.06117187 -20.875 29.125 C-20.88402344 30.16527344 -20.89304687 31.20554688 -20.90234375 32.27734375 C-20.92596253 34.85179092 -20.95889851 37.42578212 -21 40 C-21.99 40.495 -21.99 40.495 -23 41 C-22.01 41.33 -21.02 41.66 -20 42 C-21.485 42.495 -21.485 42.495 -23 43 C-23.73323796 45.01508358 -23.73323796 45.01508358 -24 47 C-24.103125 46.236875 -24.20625 45.47375 -24.3125 44.6875 C-24.71296579 41.96286882 -24.71296579 41.96286882 -26.5625 40.8125 C-28.86043962 37.91509787 -28.05465051 34.79230709 -27.6875 31.3125 C-27.62626953 30.61060547 -27.56503906 29.90871094 -27.50195312 29.18554688 C-27.34897376 27.4557033 -27.17637398 25.72761503 -27 24 C-27.66 25.32 -28.32 26.64 -29 28 C-29.125 24.625 -29.125 24.625 -29 21 C-28.34 20.34 -27.68 19.68 -27 19 C-26.51027294 17.12753994 -26.51027294 17.12753994 -26.1875 15.0625 C-25.31652035 11.21912947 -25.31652035 11.21912947 -22.5625 9.3125 C-21.716875 8.879375 -20.87125 8.44625 -20 8 C-19.566875 7.175 -19.13375 6.35 -18.6875 5.5 C-16.21966819 1.84395287 -13.07198816 1.2795207 -9 0 C-5.93109813 -1.53445094 -3.29905734 -0.54984289 0 0 Z " fill="#E5AA7B" transform="translate(70,34)"/>
<path d="M0 0 C0.2475 0.598125 0.495 1.19625 0.75 1.8125 C2.16444091 4.28777159 3.72860188 5.33430804 6 7 C6 7.66 6 8.32 6 9 C5.01 9 4.02 9 3 9 C3 8.34 3 7.68 3 7 C2.34 7 1.68 7 1 7 C1 7.99 1 8.98 1 10 C3.31 10 5.62 10 8 10 C8.33 8.68 8.66 7.36 9 6 C9.33 7.32 9.66 8.64 10 10 C10.99 10 11.98 10 13 10 C13.33 9.34 13.66 8.68 14 8 C14 8.66 14 9.32 14 10 C14.99 10 15.98 10 17 10 C17 8.68 17 7.36 17 6 C17.99 6 18.98 6 20 6 C20 7.32 20 8.64 20 10 C20.66 10 21.32 10 22 10 C22 6.7 22 3.4 22 0 C22.66 0.33 23.32 0.66 24 1 C24.41903128 14.02349215 24.41903128 14.02349215 21.140625 18.58984375 C17.62397181 21.47515149 15.21464343 22.95501321 10.625 23.125 C8.05732063 22.02456598 6.62558642 21.25775892 5 19 C5 18.34 5 17.68 5 17 C4.01 17.33 3.02 17.66 2 18 C1.06576355 14.98968256 0.95550089 14.13349732 2 11 C1.34 11 0.68 11 0 11 C-0.38218767 9.34385343 -0.71395102 7.67542976 -1 6 C-0.67 5.67 -0.34 5.34 0 5 C0.04063832 3.33382885 0.042721 1.66611905 0 0 Z M18 7 C19 10 19 10 19 10 Z M8 10 C9 12 9 12 9 12 Z " fill="#CDD3D5" transform="translate(62,103)"/>
<path d="M0 0 C0.33 0 0.66 0 1 0 C1 1.65 1 3.3 1 5 C2.57201172 4.93039063 2.57201172 4.93039063 4.17578125 4.859375 C5.55465901 4.82185452 6.93356758 4.78545464 8.3125 4.75 C9.00279297 4.71648438 9.69308594 4.68296875 10.40429688 4.6484375 C15.52960147 4.5493978 15.52960147 4.5493978 17.94921875 6.8671875 C19.30807373 9.62530951 19.57981443 10.95597426 19 14 C17.49290039 16.21355255 15.83485098 18.0275352 14 20 C13.67 19.34 13.34 18.68 13 18 C9.97065509 17.34227572 9.97065509 17.34227572 7 17 C7 18.98 7 20.96 7 23 C5.02 23 3.04 23 1 23 C0.8125 20.125 0.8125 20.125 1 17 C1.99 16.34 2.98 15.68 4 15 C2.35 14.67 0.7 14.34 -1 14 C-1.04241723 11.66705225 -1.04092937 9.33297433 -1 7 C-0.67 6.67 -0.34 6.34 0 6 C0.04080783 4.00041636 0.04254356 1.99954746 0 0 Z " fill="#308E57" transform="translate(86,58)"/>
<path d="M0 0 C0 0.66 0 1.32 0 2 C2.31 2.66 4.62 3.32 7 4 C7 4.66 7 5.32 7 6 C5.35 6 3.7 6 2 6 C2 7.98 2 9.96 2 12 C3.65 11.67 5.3 11.34 7 11 C7 9.68 7 8.36 7 7 C7.99 7.33 8.98 7.66 10 8 C10.33 9.65 10.66 11.3 11 13 C11.99 13.33 12.98 13.66 14 14 C14 14.66 14 15.32 14 16 C11.525 15.505 11.525 15.505 9 15 C9 17.64 9 20.28 9 23 C7.68 23.33 6.36 23.66 5 24 C5 23.34 5 22.68 5 22 C1.04 21.67 -2.92 21.34 -7 21 C-6.88658363 18.68690295 -6.75896193 16.37449815 -6.625 14.0625 C-6.55539063 12.77472656 -6.48578125 11.48695312 -6.4140625 10.16015625 C-6.27742188 9.11730469 -6.14078125 8.07445312 -6 7 C-5.34 6.67 -4.68 6.34 -4 6 C-4.03255208 8.01822917 -4.06510417 10.03645833 -4.09765625 12.0546875 C-4.12649242 14.08185404 -4.12649242 14.08185404 -3 16 C-3 14.68 -3 13.36 -3 12 C-3 10 -3 8 -3 6 C-2.34 6 -1.68 6 -1 6 C-3.0072908 2.9890638 -3.83884224 2.36983503 -7 1 C-4.53721199 -0.231394 -2.7204945 -0.07159196 0 0 Z " fill="#3A955F" transform="translate(84,33)"/>
<path d="M0 0 C0.66 0.33 1.32 0.66 2 1 C2.31241455 3.71446979 2.51336592 6.33909361 2.625 9.0625 C2.66367188 9.82111328 2.70234375 10.57972656 2.7421875 11.36132812 C2.83673562 13.24047195 2.91946756 15.12020336 3 17 C3.33 12.05 3.66 7.1 4 2 C4.33 2 4.66 2 5 2 C5.33 20.15 5.66 38.3 6 57 C5.34 57 4.68 57 4 57 C3.77213542 54.94921875 3.54427083 52.8984375 3.31640625 50.84765625 C3.18113386 48.98859771 3.18113386 48.98859771 2 48 C2 51.63 2 55.26 2 59 C7.32212148 59.79265639 12.6496441 60.42978066 18 61 C17.67 62.32 17.34 63.64 17 65 C17 64.01 17 63.02 17 62 C8.42 62 -0.16 62 -9 62 C-9.33 62.99 -9.66 63.98 -10 65 C-9.67 62.36 -9.34 59.72 -9 57 C-10.98 57 -12.96 57 -15 57 C-15 56.67 -15 56.34 -15 56 C-10.51919273 55.91038385 -6.40335804 56.1807706 -2 57 C-1.34 57 -0.68 57 0 57 C0 38.19 0 19.38 0 0 Z M3 36 C3 39 3 39 3 39 Z M2 39 C2 40.65 2 42.3 2 44 C2.33 44 2.66 44 3 44 C3 42.35 3 40.7 3 39 C2.67 39 2.34 39 2 39 Z M2 45 C2 45.66 2 46.32 2 47 C2.66 46.67 3.32 46.34 4 46 C3.34 45.67 2.68 45.34 2 45 Z M-8 58 C-7.67 58.99 -7.34 59.98 -7 61 C-7 60.01 -7 59.02 -7 58 C-7.33 58 -7.66 58 -8 58 Z M-2 59 C-2 59.66 -2 60.32 -2 61 C-1.01 60.67 -0.02 60.34 1 60 C0.01 59.67 -0.98 59.34 -2 59 Z " fill="#E2D0C3" transform="translate(70,36)"/>
<path d="M0 0 C0.66 0 1.32 0 2 0 C1.96744792 2.05078125 1.93489583 4.1015625 1.90234375 6.15234375 C1.79438816 8.01732141 1.79438816 8.01732141 3 9 C3.125 12.5 3.125 12.5 3 16 C2.67 16.33 2.34 16.66 2 17 C4.31 17.33 6.62 17.66 9 18 C9 18.99 9 19.98 9 21 C10.32 20.67 11.64 20.34 13 20 C12.6875 22.375 12.6875 22.375 12 25 C8.5647952 27.29013653 7.014669 27.17842973 3 27 C2.67 27.66 2.34 28.32 2 29 C2 28.01 2 27.02 2 26 C3.65 25.67 5.3 25.34 7 25 C3.0186217 23.6728739 -0.85045227 23.93084087 -5 24 C-5 21.69 -5 19.38 -5 17 C-4.34 16.67 -3.68 16.34 -3 16 C-3.33 15.67 -3.66 15.34 -4 15 C-4.14115161 12.32941149 -4.04247107 9.67567762 -4 7 C-3.01 7 -2.02 7 -1 7 C-0.67 4.69 -0.34 2.38 0 0 Z " fill="#69B889" transform="translate(82,66)"/>
<path d="M0 0 C0.66 0 1.32 0 2 0 C2 0.66 2 1.32 2 2 C2.8353125 2.37125 2.8353125 2.37125 3.6875 2.75 C6.5886182 4.318172 8.67746803 5.61634877 11 8 C11.37233017 10.96672677 11.4808246 13.31856241 11.3125 16.25 C11.27866211 17.36761719 11.27866211 17.36761719 11.24414062 18.5078125 C11.18543561 20.339409 11.09575757 22.16996653 11 24 C9.68 24.33 8.36 24.66 7 25 C7 23.35 7 21.7 7 20 C7.66 20 8.32 20 9 20 C9 18.35 9 16.7 9 15 C8.34 15 7.68 15 7 15 C6.67 15.66 6.34 16.32 6 17 C5.34 17 4.68 17 4 17 C4 17.66 4 18.32 4 19 C4.66 19 5.32 19 6 19 C6 20.65 6 22.3 6 24 C5.67 23.34 5.34 22.68 5 22 C3.35 22.33 1.7 22.66 0 23 C0 15.41 0 7.82 0 0 Z " fill="#F2B973" transform="translate(58,67)"/>
<path d="M0 0 C4.00647751 1.3354925 4.75744636 3.52765887 7 7 C7.66 7.33 8.32 7.66 9 8 C8.67 11.3 8.34 14.6 8 18 C6.68 17.34 5.36 16.68 4 16 C4 16.66 4 17.32 4 18 C1 17 1 17 0 16 C-0.33 16.66 -0.66 17.32 -1 18 C-2 17 -2 17 -2.09765625 13.40234375 C-2.0909822 11.91403133 -2.07902183 10.42573568 -2.0625 8.9375 C-2.05798828 8.17888672 -2.05347656 7.42027344 -2.04882812 6.63867188 C-2.0370068 4.75908129 -2.01907078 2.87953101 -2 1 C-1.34 0.67 -0.68 0.34 0 0 Z " fill="#F0BC73" transform="translate(60,45)"/>
<path d="M0 0 C0.99 0 1.98 0 3 0 C3.01458252 0.68626465 3.02916504 1.3725293 3.04418945 2.07958984 C3.11850151 5.17863901 3.21521582 8.27659055 3.3125 11.375 C3.33505859 12.45523438 3.35761719 13.53546875 3.38085938 14.6484375 C3.41630859 15.6796875 3.45175781 16.7109375 3.48828125 17.7734375 C3.51446533 18.72653809 3.54064941 19.67963867 3.56762695 20.66162109 C3.78165161 21.81911865 3.78165161 21.81911865 4 23 C4.99 23.66 5.98 24.32 7 25 C-0.73471353 25.9099663 -0.73471353 25.9099663 -3.7109375 23.76953125 C-5.97335257 21.12132864 -7 19.52033808 -7 16 C-5.02 16 -3.04 16 -1 16 C-0.34 14.02 0.32 12.04 1 10 C0.01 10.99 -0.98 11.98 -2 13 C-2.66 12.67 -3.32 12.34 -4 12 C-4 11.01 -4 10.02 -4 9 C-3.01 8.67 -2.02 8.34 -1 8 C-0.67 5.36 -0.34 2.72 0 0 Z " fill="#E5A872" transform="translate(55,67)"/>
<path d="M0 0 C0.33 0 0.66 0 1 0 C1.03738281 0.83144531 1.07476562 1.66289063 1.11328125 2.51953125 C1.21189453 4.14955078 1.21189453 4.14955078 1.3125 5.8125 C1.37050781 6.89144531 1.42851563 7.97039063 1.48828125 9.08203125 C2.03068507 12.17497517 2.55289624 13.13022903 5 15 C5 14.34 5 13.68 5 13 C5.66 13 6.32 13 7 13 C7.33 12.34 7.66 11.68 8 11 C8.66 11.66 9.32 12.32 10 13 C9.67751743 14.33599921 9.34227417 15.66893378 9 17 C9.28604898 18.67542976 9.61781233 20.34385343 10 22 C10 22.99 10 23.98 10 25 C6.21213403 24.4739075 3.82847776 23.61896089 1 21 C1 20.34 1 19.68 1 19 C-0.32 18.34 -1.64 17.68 -3 17 C-2.505 15.515 -2.505 15.515 -2 14 C-1.34 13.67 -0.68 13.34 0 13 C0 8.71 0 4.42 0 0 Z " fill="#E2A764" transform="translate(59,48)"/>
<path d="M0 0 C0.33 0 0.66 0 1 0 C1 7 1 14 1 21 C1.33 21.99 1.66 22.98 2 24 C2 24.99 2 25.98 2 27 C1.01 27 0.02 27 -1 27 C-1.33 27.66 -1.66 28.32 -2 29 C-2.99 28.67 -3.98 28.34 -5 28 C-5 20.74 -5 13.48 -5 6 C-4.01 6 -3.02 6 -2 6 C-1.67 5.01 -1.34 4.02 -1 3 C-1 4.32 -1 5.64 -1 7 C-1.99 7 -2.98 7 -4 7 C-4 13.27 -4 19.54 -4 26 C-2.60843516 24.83722968 -2.60843516 24.83722968 -2.90234375 21.62109375 C-2.90901631 20.22652923 -2.92097468 18.83198257 -2.9375 17.4375 C-2.94201172 16.72658203 -2.94652344 16.01566406 -2.95117188 15.28320312 C-2.96299136 13.52209987 -2.98092737 11.76103964 -3 10 C-2.34 10 -1.68 10 -1 10 C-0.67 6.7 -0.34 3.4 0 0 Z " fill="#FBBF77" transform="translate(56,40)"/>
<path d="M0 0 C-0.33 6.6 -0.66 13.2 -1 20 C-0.01 20.33 0.98 20.66 2 21 C1.01 21.33 0.02 21.66 -1 22 C-1.73323796 24.01508358 -1.73323796 24.01508358 -2 26 C-2.103125 25.236875 -2.20625 24.47375 -2.3125 23.6875 C-2.74344004 20.97076088 -2.74344004 20.97076088 -4.55859375 19.59375 C-6 18 -6 18 -6.109375 16.01953125 C-5.99078125 15.29121094 -5.8721875 14.56289062 -5.75 13.8125 C-5.63011719 13.02488281 -5.51023438 12.23726562 -5.38671875 11.42578125 C-5.25910156 10.62527344 -5.13148437 9.82476562 -5 9 C-4.8517819 7.50023377 -4.70576686 6.0002473 -4.5625 4.5 C-4.376875 3.345 -4.19125 2.19 -4 1 C-2 0 -2 0 0 0 Z " fill="#F3AB66" transform="translate(48,55)"/>
<path d="M0 0 C0.33 0 0.66 0 1 0 C1.33 18.15 1.66 36.3 2 55 C1.34 55 0.68 55 0 55 C-0.59519392 50.46164635 -1.03265445 46.20598922 -0.96484375 41.625 C-0.95582031 40.75875 -0.94679688 39.8925 -0.9375 39 C-0.92589844 38.13375 -0.91429688 37.2675 -0.90234375 36.375 C-0.89637375 33.84923649 -0.89637375 33.84923649 -2 31 C-1.94809719 28.63977827 -1.8235734 26.28091083 -1.66015625 23.92578125 C-1.61434921 23.2419487 -1.56854218 22.55811615 -1.52134705 21.8535614 C-1.37397891 19.67278403 -1.21834765 17.49268618 -1.0625 15.3125 C-0.96104321 13.83271958 -0.86012532 12.35290211 -0.75976562 10.87304688 C-0.51275865 7.24824734 -0.25833849 3.62401157 0 0 Z " fill="#E1FCED" transform="translate(74,38)"/>
<path d="M0 0 C1.65 0.33 3.3 0.66 5 1 C5.36220266 2.79005941 5.71452469 4.58212057 6.0625 6.375 C6.25972656 7.37273438 6.45695312 8.37046875 6.66015625 9.3984375 C7 12 7 12 6 14 C3.53199953 12.84826645 1.95216435 11.95216435 0 10 C0 9.01 0 8.02 0 7 C-1.65 7.33 -3.3 7.66 -5 8 C-5 6.35 -5 4.7 -5 3 C-4.360625 2.87625 -3.72125 2.7525 -3.0625 2.625 C-2.0415625 2.315625 -2.0415625 2.315625 -1 2 C-0.67 1.34 -0.34 0.68 0 0 Z " fill="#F8BB73" transform="translate(63,36)"/>
<path d="M0 0 C1.32 0.99 2.64 1.98 4 3 C3.67 5.31 3.34 7.62 3 10 C2.34 10 1.68 10 1 10 C0.91363281 10.60328125 0.82726562 11.2065625 0.73828125 11.828125 C-0.42367067 18.4373928 -0.42367067 18.4373928 -3.625 21.5625 C-4.40875 22.036875 -5.1925 22.51125 -6 23 C-6.66 22.34 -7.32 21.68 -8 21 C-7.34 21 -6.68 21 -6 21 C-6 19.68 -6 18.36 -6 17 C-6.66 17 -7.32 17 -8 17 C-8 15.02 -8 13.04 -8 11 C-6.8553125 11.2784375 -6.8553125 11.2784375 -5.6875 11.5625 C-2.91032625 12.22819173 -2.91032625 12.22819173 0 11 C0.185625 9.741875 0.37125 8.48375 0.5625 7.1875 C0.66691406 6.47980469 0.77132812 5.77210937 0.87890625 5.04296875 C1.13904799 2.7974658 1.13904799 2.7974658 0 0 Z " fill="#ABD2BA" transform="translate(103,64)"/>
<path d="M0 0 C8.58 0 17.16 0 26 0 C26 0.99 26 1.98 26 3 C17.42 3 8.84 3 0 3 C0 2.01 0 1.02 0 0 Z " fill="#41535A" transform="translate(61,98)"/>
<path d="M0 0 C2.31 0 4.62 0 7 0 C7 2.31 7 4.62 7 7 C5.35 7.33 3.7 7.66 2 8 C2 10.31 2 12.62 2 15 C1.01 15 0.02 15 -1 15 C-0.67 10.05 -0.34 5.1 0 0 Z " fill="#5EB383" transform="translate(78,57)"/>
<path d="M0 0 C0.33 0 0.66 0 1 0 C1 5.94 1 11.88 1 18 C1.99 18 2.98 18 4 18 C4.33 17.01 4.66 16.02 5 15 C4.34 15 3.68 15 3 15 C3 14.34 3 13.68 3 13 C3.66 13 4.32 13 5 13 C5.33 12.01 5.66 11.02 6 10 C6.66 10.33 7.32 10.66 8 11 C8 12.65 8 14.3 8 16 C7.34 16 6.68 16 6 16 C7.36323743 18.0399719 7.36323743 18.0399719 9 20 C9.66 20 10.32 20 11 20 C11 20.66 11 21.32 11 22 C5.25 23.125 5.25 23.125 3 22 C3 21.34 3 20.68 3 20 C2.01 20 1.02 20 0 20 C0 13.4 0 6.8 0 0 Z " fill="#D9884C" transform="translate(59,71)"/>
<path d="M0 0 C0.33 0 0.66 0 1 0 C1 1.98 1 3.96 1 6 C2.98 6 4.96 6 7 6 C7 4.02 7 2.04 7 0 C7.66 0 8.32 0 9 0 C9 1.98 9 3.96 9 6 C9.66 6 10.32 6 11 6 C11 7.32 11 8.64 11 10 C8 12 8 12 5 12 C4.67 11.34 4.34 10.68 4 10 C1.47266765 9.34444881 1.47266765 9.34444881 -1 9 C-0.67 6.03 -0.34 3.06 0 0 Z " fill="#348F5C" transform="translate(86,75)"/>
<path d="M0 0 C1.79244141 0.01740234 1.79244141 0.01740234 3.62109375 0.03515625 C5.41740234 0.04869141 5.41740234 0.04869141 7.25 0.0625 C8.17683594 0.07410156 9.10367188 0.08570313 10.05859375 0.09765625 C9.72859375 1.74765625 9.39859375 3.39765625 9.05859375 5.09765625 C5.09859375 5.09765625 1.13859375 5.09765625 -2.94140625 5.09765625 C-3.27140625 3.77765625 -3.60140625 2.45765625 -3.94140625 1.09765625 C-2.94140625 0.09765625 -2.94140625 0.09765625 0 0 Z " fill="#F2F6F6" transform="translate(110.94140625,61.90234375)"/>
<path d="M0 0 C1.98 0 3.96 0 6 0 C6 0.99 6 1.98 6 3 C7.32 2.67 8.64 2.34 10 2 C9.6875 4.375 9.6875 4.375 9 7 C5.5647952 9.29013653 4.014669 9.17842973 0 9 C-0.33 9.66 -0.66 10.32 -1 11 C-1 10.01 -1 9.02 -1 8 C0.65 7.67 2.3 7.34 4 7 C2.68 6.67 1.36 6.34 0 6 C0 4.02 0 2.04 0 0 Z " fill="#A0D9B6" transform="translate(85,84)"/>
<path d="M0 0 C0.66 0.33 1.32 0.66 2 1 C1.88658509 3.48020497 1.75985314 5.95844969 1.625 8.4375 C1.57859375 9.49807617 1.57859375 9.49807617 1.53125 10.58007812 C1.42719371 12.39239188 1.22080108 14.19817988 1 16 C0.34 16.33 -0.32 16.66 -1 17 C-1.33 15.02 -1.66 13.04 -2 11 C-2.515625 11.165 -3.03125 11.33 -3.5625 11.5 C-6.73363876 12.15049 -9.77218334 12.0620734 -13 12 C-13.33 10.02 -13.66 8.04 -14 6 C-13.01 6.495 -13.01 6.495 -12 7 C-12 7.99 -12 8.98 -12 10 C-11.01 10 -10.02 10 -9 10 C-8.67 9.34 -8.34 8.68 -8 8 C-8 8.66 -8 9.32 -8 10 C-7.01 10 -6.02 10 -5 10 C-5 8.68 -5 7.36 -5 6 C-4.01 6 -3.02 6 -2 6 C-2 7.32 -2 8.64 -2 10 C-1.34 10 -0.68 10 0 10 C0 6.7 0 3.4 0 0 Z M-4 7 C-3 10 -3 10 -3 10 Z " fill="#E8ECEC" transform="translate(84,103)"/>
<path d="M0 0 C1.1446875 0.3403125 1.1446875 0.3403125 2.3125 0.6875 C2.3125 3.35416667 2.3125 6.02083333 2.3125 8.6875 C-0.39629335 10.04189668 -2.69683268 9.75251451 -5.6875 9.6875 C-6.04924071 3.29674751 -6.04924071 3.29674751 -4.5 0.6875 C-2.6875 -0.3125 -2.6875 -0.3125 0 0 Z " fill="#56A775" transform="translate(82.6875,80.3125)"/>
<path d="M0 0 C4.36508425 1.45502808 6.94498419 4.32156576 9.375 8.1875 C9.58125 8.785625 9.7875 9.38375 10 10 C9.67 10.66 9.34 11.32 9 12 C5 12 5 12 3.078125 10.25 C2.47484375 9.5075 1.8715625 8.765 1.25 8 C0.63640625 7.2575 0.0228125 6.515 -0.609375 5.75 C-1.06828125 5.1725 -1.5271875 4.595 -2 4 C-1.34 2.68 -0.68 1.36 0 0 Z " fill="#889498" transform="translate(40,30)"/>
<path d="M0 0 C6.625 -0.125 6.625 -0.125 10 1 C10 2.98 10 4.96 10 7 C8.02 7.33 6.04 7.66 4 8 C4 7.34 4 6.68 4 6 C2.68 6 1.36 6 0 6 C0 4.02 0 2.04 0 0 Z " fill="#6DBD8D" transform="translate(93,66)"/>
<path d="M0 0 C0.1015405 4.7724033 -0.19416859 9.3446104 -0.78125 14.08203125 C-1.03777277 16.00945241 -1.03777277 16.00945241 -1 18 C-0.34 18 0.32 18 1 18 C1 20.31 1 22.62 1 25 C0.731875 24.443125 0.46375 23.88625 0.1875 23.3125 C-0.9783124 20.94046509 -0.9783124 20.94046509 -2.5625 18.625 C-4.1558667 15.71537386 -4.61916299 13.27519826 -5 10 C-4.34 10 -3.68 10 -3 10 C-3.37125 9.071875 -3.7425 8.14375 -4.125 7.1875 C-4.41375 6.135625 -4.7025 5.08375 -5 4 C-2.33333333 0 -2.33333333 0 0 0 Z " fill="#F0C5A4" transform="translate(44,57)"/>
<path d="M0 0 C0.70125 0.28875 1.4025 0.5775 2.125 0.875 C0.75991499 3.99228368 -0.74419698 5.96163738 -3.3125 8.1875 C-3.90933594 8.71988281 -4.50617187 9.25226563 -5.12109375 9.80078125 C-5.69988281 10.15527344 -6.27867188 10.50976562 -6.875 10.875 C-7.865 10.545 -8.855 10.215 -9.875 9.875 C-8.93362212 4.73104227 -5.57657088 -0.2424596 0 0 Z " fill="#929EA2" transform="translate(48.875,88.125)"/>
<path d="M0 0 C2.5625 2.25 2.5625 2.25 5 5 C5.598125 5.598125 6.19625 6.19625 6.8125 6.8125 C7.204375 7.204375 7.59625 7.59625 8 8 C7.67 8.99 7.34 9.98 7 11 C3.07668566 10.77581061 2.03871912 10.04047908 -0.75 7.125 C-3 4 -3 4 -4 1 C-2.3125 0.1875 -2.3125 0.1875 0 0 Z " fill="#939B9F" transform="translate(100,87)"/>
<path d="M0 0 C1.98 0.495 1.98 0.495 4 1 C4.83796731 5.65537393 5.0161692 9.37078475 4 14 C2.68 14 1.36 14 0 14 C-0.19532961 12.2300132 -0.38098882 10.45895721 -0.5625 8.6875 C-0.66691406 7.70136719 -0.77132812 6.71523438 -0.87890625 5.69921875 C-1 3 -1 3 0 0 Z " fill="#929B9E" transform="translate(71,17)"/>
<path d="M0 0 C3.63 0 7.26 0 11 0 C11.33 1.32 11.66 2.64 12 4 C11 5 11 5 8.27734375 5.09765625 C6.62412109 5.08025391 6.62412109 5.08025391 4.9375 5.0625 C3.83277344 5.05347656 2.72804688 5.04445313 1.58984375 5.03515625 C0.30787109 5.01775391 0.30787109 5.01775391 -1 5 C-0.67 3.35 -0.34 1.7 0 0 Z " fill="#8F999B" transform="translate(27,62)"/>
<path d="M0 0 C0.99 0.33 1.98 0.66 3 1 C2.91433603 3.912575 2.42089045 5.56798024 0.375 7.66796875 C-1.38391375 9.16091772 -3.16313019 10.60436262 -5 12 C-5.66 11.67 -6.32 11.34 -7 11 C-6.49396008 8.83125748 -6.00016187 7.00032373 -5 5 C-4.34 5 -3.68 5 -3 5 C-2.67 4.01 -2.34 3.02 -2 2 C-1.34 2 -0.68 2 0 2 C0 1.34 0 0.68 0 0 Z " fill="#99A3A5" transform="translate(104,30)"/>
<path d="M0 0 C5.94 0 11.88 0 18 0 C18 0.99 18 1.98 18 3 C12.06 3 6.12 3 0 3 C0 2.01 0 1.02 0 0 Z " fill="#3D5058" transform="translate(65,116)"/>
<path d="M0 0 C0.99 0 1.98 0 3 0 C3 0.99 3 1.98 3 3 C3.33 2.01 3.66 1.02 4 0 C4.99 0 5.98 0 7 0 C7 3.3 7 6.6 7 10 C6.34 10 5.68 10 5 10 C5 8.68 5 7.36 5 6 C4.01 6 3.02 6 2 6 C2 7.32 2 8.64 2 10 C1.34 10 0.68 10 0 10 C0 6.7 0 3.4 0 0 Z " fill="#6A7579" transform="translate(77,103)"/>
<path d="M0 0 C0.99 0 1.98 0 3 0 C3 3.63 3 7.26 3 11 C2.01 11 1.02 11 0 11 C-2.15028304 11.94978897 -2.15028304 11.94978897 -4 13 C-4.33 12.01 -4.66 11.02 -5 10 C-4.360625 9.835 -3.72125 9.67 -3.0625 9.5 C-0.83880759 8.218214 -0.83880759 8.218214 -0.51171875 6.0859375 C-0.2724022 4.06424845 -0.13106972 2.03158061 0 0 Z " fill="#DFA65F" transform="translate(55,67)"/>
<path d="M0 0 C0.33 0 0.66 0 1 0 C0.96744792 2.01822917 0.93489583 4.03645833 0.90234375 6.0546875 C0.87350758 8.08185404 0.87350758 8.08185404 2 10 C2.66 9.67 3.32 9.34 4 9 C4 10.98 4 12.96 4 15 C2.02 15 0.04 15 -2 15 C-1.85973717 12.68715544 -1.71264442 10.37472409 -1.5625 8.0625 C-1.48128906 6.77472656 -1.40007812 5.48695312 -1.31640625 4.16015625 C-1 1 -1 1 0 0 Z " fill="#91D5B2" transform="translate(79,39)"/>
<path d="M0 0 C2.66666667 2.66666667 5.33333333 5.33333333 8 8 C6.68 8.33 5.36 8.66 4 9 C3.71125 8.195625 3.4225 7.39125 3.125 6.5625 C2.26737432 3.8673532 2.26737432 3.8673532 0 3 C0.33 4.65 0.66 6.3 1 8 C-0.98 8 -2.96 8 -5 8 C-5 6.02 -5 4.04 -5 2 C-3.35 2 -1.7 2 0 2 C0 1.34 0 0.68 0 0 Z " fill="#94CBAA" transform="translate(91,37)"/>
<path d="M0 0 C1.134375 0.020625 2.26875 0.04125 3.4375 0.0625 C3.4375 1.3825 3.4375 2.7025 3.4375 4.0625 C2.7775 4.0625 2.1175 4.0625 1.4375 4.0625 C1.61667969 4.67738281 1.79585938 5.29226562 1.98046875 5.92578125 C2.19316406 6.73402344 2.40585938 7.54226562 2.625 8.375 C2.84542969 9.17550781 3.06585938 9.97601563 3.29296875 10.80078125 C3.4375 13.0625 3.4375 13.0625 1.98828125 14.85546875 C1.47652344 15.25378906 0.96476562 15.65210938 0.4375 16.0625 C-0.22515883 13.24619996 -0.55814111 10.84455571 -0.5 7.9375 C-0.30970386 4.8605017 -0.30970386 4.8605017 -2.5625 2.0625 C-2.8925 4.0425 -3.2225 6.0225 -3.5625 8.0625 C-3.8925 8.0625 -4.2225 8.0625 -4.5625 8.0625 C-4.60491723 5.72955225 -4.60342937 3.39547433 -4.5625 1.0625 C-3.5625 0.0625 -3.5625 0.0625 0 0 Z " fill="#338F5B" transform="translate(79.5625,34.9375)"/>
<path d="M0 0 C0 0.66 0 1.32 0 2 C2.97 2.495 2.97 2.495 6 3 C6 3.33 6 3.66 6 4 C4.02 4 2.04 4 0 4 C0.33 4.66 0.66 5.32 1 6 C1.039992 7.99960012 1.04346799 10.00047242 1 12 C-0.32 12 -1.64 12 -3 12 C-3 10.02 -3 8.04 -3 6 C-2.34 6 -1.68 6 -1 6 C-3.0072908 2.9890638 -3.83884224 2.36983503 -7 1 C-4.53721199 -0.231394 -2.7204945 -0.07159196 0 0 Z " fill="#A1DEBD" transform="translate(84,33)"/>
<path d="M0 0 C3.63 0 7.26 0 11 0 C10.34 1.32 9.68 2.64 9 4 C6.0625 4.875 6.0625 4.875 3 5 C2.01 4.34 1.02 3.68 0 3 C0 2.01 0 1.02 0 0 Z " fill="#838C8F" transform="translate(69,121)"/>
<path d="M0 0 C0.66 0 1.32 0 2 0 C2 5.28 2 10.56 2 16 C1.67 16 1.34 16 1 16 C1 13.69 1 11.38 1 9 C0.34 9 -0.32 9 -1 9 C-0.67 14.28 -0.34 19.56 0 25 C-0.66 25 -1.32 25 -2 25 C-2 18.73 -2 12.46 -2 6 C-1.01 6 -0.02 6 1 6 C0.67 4.02 0.34 2.04 0 0 Z " fill="#E39A4D" transform="translate(54,41)"/>
<path d="M0 0 C2.31 0 4.62 0 7 0 C7 0.99 7 1.98 7 3 C6.01 3 5.02 3 4 3 C4 2.34 4 1.68 4 1 C3.34 1 2.68 1 2 1 C2 1.99 2 2.98 2 4 C4.475 4.99 4.475 4.99 7 6 C7 7.32 7 8.64 7 10 C4.69 10 2.38 10 0 10 C0 9.01 0 8.02 0 7 C0.66 7 1.32 7 2 7 C2 7.66 2 8.32 2 9 C2.99 9 3.98 9 5 9 C4.175 8.2575 3.35 7.515 2.5 6.75 C0 4 0 4 0 0 Z " fill="#61686C" transform="translate(63,103)"/>
<path d="M0 0 C0.61875 0.639375 1.2375 1.27875 1.875 1.9375 C3.82597612 4.03883584 3.82597612 4.03883584 6 5 C5.67 8.3 5.34 11.6 5 15 C3.35 14.01 1.7 13.02 0 12 C0.33 11.34 0.66 10.68 1 10 C1.99 10 2.98 10 4 10 C4 9.34 4 8.68 4 8 C2.68 8.33 1.36 8.66 0 9 C0 6.03 0 3.06 0 0 Z " fill="#FCCA8C" transform="translate(63,48)"/>
<path d="M0 0 C1.485 0.99 1.485 0.99 3 2 C3.29296875 5.2578125 3.29296875 5.2578125 3.1875 9.125 C3.14689453 11.04699219 3.14689453 11.04699219 3.10546875 13.0078125 C3.07066406 13.99523437 3.03585938 14.98265625 3 16 C1.68 16.33 0.36 16.66 -1 17 C-1 15.35 -1 13.7 -1 12 C-0.34 12 0.32 12 1 12 C1 10.35 1 8.7 1 7 C0.34 6.67 -0.32 6.34 -1 6 C-0.67 4.02 -0.34 2.04 0 0 Z " fill="#EFA65F" transform="translate(66,75)"/>
<path d="M0 0 C2.4375 0.25 2.4375 0.25 5 1 C7.1519437 4.22791555 7.20086443 5.28400809 7 9 C6.01 9.495 6.01 9.495 5 10 C5 8.02 5 6.04 5 4 C4.34 4 3.68 4 3 4 C3 5.65 3 7.3 3 9 C2.67 9 2.34 9 2 9 C2 7.02 2 5.04 2 3 C-0.31 3 -2.62 3 -5 3 C-4.360625 2.690625 -3.72125 2.38125 -3.0625 2.0625 C-1.06389179 1.1654837 -1.06389179 1.1654837 0 0 Z " fill="#318754" transform="translate(98,63)"/>
<path d="M0 0 C0.33 0 0.66 0 1 0 C1.19214323 4.80509958 1.37088308 9.61043783 1.53710938 14.41650391 C1.59558 16.05205718 1.65773919 17.68748287 1.72363281 19.32275391 C1.8176061 21.67066214 1.89838991 24.01870678 1.9765625 26.3671875 C2.00875885 27.10057343 2.0409552 27.83395935 2.0741272 28.58956909 C2.12756428 30.39242355 2.07280193 32.19782365 2 34 C1.34 34.66 0.68 35.32 0 36 C0 24.12 0 12.24 0 0 Z " fill="#DFDFDF" transform="translate(0,34)"/>
<path d="M0 0 C0.33 0 0.66 0 1 0 C1 4.62 1 9.24 1 14 C-0.32 14.33 -1.64 14.66 -3 15 C-3.33 15.66 -3.66 16.32 -4 17 C-4.185625 15.88625 -4.185625 15.88625 -4.375 14.75 C-4.95486701 12.19858515 -5.73708739 10.2732427 -7 8 C-4.03 9.98 -4.03 9.98 -1 12 C-1.020625 10.948125 -1.04125 9.89625 -1.0625 8.8125 C-1.01103198 5.67295096 -0.73482813 3.03116604 0 0 Z " fill="#DA9057" transform="translate(70,38)"/>
<path d="M0 0 C0.66 0 1.32 0 2 0 C2 2.97 2 5.94 2 9 C1.67 8.34 1.34 7.68 1 7 C-0.98 7.33 -2.96 7.66 -5 8 C-5 6.35 -5 4.7 -5 3 C-4.360625 2.87625 -3.72125 2.7525 -3.0625 2.625 C-2.0415625 2.315625 -2.0415625 2.315625 -1 2 C-0.67 1.34 -0.34 0.68 0 0 Z " fill="#EDA15C" transform="translate(63,36)"/>
<path d="M0 0 C-0.33 0.99 -0.66 1.98 -1 3 C-4.75907641 4.62323754 -7.92086213 5.23994929 -12 5 C-12.33 4.01 -12.66 3.02 -13 2 C-8.49646738 0.24252386 -4.82360189 -0.19294408 0 0 Z " fill="#2D7E55" transform="translate(90,89)"/>
<path d="M0 0 C0.99 0 1.98 0 3 0 C3 0.66 3 1.32 3 2 C2.34 2 1.68 2 1 2 C1 4.31 1 6.62 1 9 C2.98 9.66 4.96 10.32 7 11 C6.67 11.66 6.34 12.32 6 13 C5.34 13 4.68 13 4 13 C3.67 14.32 3.34 15.64 3 17 C2.896875 16.236875 2.79375 15.47375 2.6875 14.6875 C2.26111379 11.96936488 2.26111379 11.96936488 0.4375 10.625 C-1 9 -1 9 -1.07421875 6.73828125 C-0.94660156 5.93777344 -0.81898437 5.13726562 -0.6875 4.3125 C-0.56761719 3.50425781 -0.44773438 2.69601563 -0.32421875 1.86328125 C-0.21722656 1.24839844 -0.11023437 0.63351563 0 0 Z " fill="#DF732F" transform="translate(43,64)"/>
<path d="M0 0 C1.98 0 3.96 0 6 0 C6 1.98 6 3.96 6 6 C4.02 6 2.04 6 0 6 C0 4.02 0 2.04 0 0 Z " fill="#A0D8B6" transform="translate(87,75)"/>
<path d="M0 0 C1.98 0 3.96 0 6 0 C6 1.98 6 3.96 6 6 C4.02 6 2.04 6 0 6 C0 4.02 0 2.04 0 0 Z " fill="#75BE95" transform="translate(85,66)"/>
<path d="M0 0 C1.98 0 3.96 0 6 0 C6 1.98 6 3.96 6 6 C4.02 6 2.04 6 0 6 C0 4.02 0 2.04 0 0 Z " fill="#7DC29C" transform="translate(87,57)"/>
<path d="M0 0 C0.66 0 1.32 0 2 0 C2 0.66 2 1.32 2 2 C2.99 2.33 3.98 2.66 5 3 C4.67 3.66 4.34 4.32 4 5 C3.34 5 2.68 5 2 5 C1.67 10.94 1.34 16.88 1 23 C0.67 23 0.34 23 0 23 C0 15.41 0 7.82 0 0 Z " fill="#F9CC8B" transform="translate(58,67)"/>
<path d="M0 0 C2.25 -0.375 2.25 -0.375 5 0 C7.57514869 3.1319376 9 4.89410579 9 9 C5.18063472 7.44396229 2.73955562 5.04395069 0 2 C0 1.34 0 0.68 0 0 Z " fill="#ECAB5F" transform="translate(60,64)"/>
<path d="M0 0 C3.63 0 7.26 0 11 0 C11 0.99 11 1.98 11 3 C7.37 3 3.74 3 0 3 C0 2.01 0 1.02 0 0 Z " fill="#576268" transform="translate(109,63)"/>
<path d="M0 0 C0.99 0.33 1.98 0.66 3 1 C2.34 2.98 1.68 4.96 1 7 C0.67 7 0.34 7 0 7 C0 10.63 0 14.26 0 18 C-0.66 17.67 -1.32 17.34 -2 17 C-2 11.72 -2 6.44 -2 1 C-1.34 0.67 -0.68 0.34 0 0 Z " fill="#FAC886" transform="translate(60,45)"/>
<path d="M0 0 C1.98 0 3.96 0 6 0 C6 1.98 6 3.96 6 6 C4 6 2 6 0 6 C0 4.02 0 2.04 0 0 Z " fill="#A7DEBD" transform="translate(85,48)"/>
<path d="M0 0 C0.33 0.99 0.66 1.98 1 3 C-0.625 5 -0.625 5 -3 7 C-6.25 7.25 -6.25 7.25 -9 7 C-9.33 7.66 -9.66 8.32 -10 9 C-10 8.01 -10 7.02 -10 6 C-8.824375 5.87625 -8.824375 5.87625 -7.625 5.75 C-4.8553382 5.29150599 -4.8553382 5.29150599 -3.875 3 C-3.441875 2.01 -3.441875 2.01 -3 1 C-2.01 0.67 -1.02 0.34 0 0 Z " fill="#99C6AD" transform="translate(94,86)"/>
<path d="M0 0 C1.98 0 3.96 0 6 0 C6 1.65 6 3.3 6 5 C4.02 5.33 2.04 5.66 0 6 C0 4.02 0 2.04 0 0 Z " fill="#A7E2BB" transform="translate(93,48)"/>
<path d="M0 0 C2.475 0.495 2.475 0.495 5 1 C5.99 4.3 6.98 7.6 8 11 C4.32966073 7.72291137 2.30718811 4.28477792 0 0 Z " fill="#79AF93" transform="translate(96,45)"/>
<path d="M0 0 C0.66 0.33 1.32 0.66 2 1 C2 3.31 2 5.62 2 8 C0.68 8.33 -0.64 8.66 -2 9 C-2 8.34 -2 7.68 -2 7 C-3.32 6.67 -4.64 6.34 -6 6 C-5.195625 5.7525 -4.39125 5.505 -3.5625 5.25 C-0.828919 4.27761141 -0.828919 4.27761141 -0.1875 1.875 C-0.125625 1.25625 -0.06375 0.6375 0 0 Z " fill="#439963" transform="translate(91,48)"/>
<path d="M0 0 C0.33 0 0.66 0 1 0 C1 3.63 1 7.26 1 11 C0.01 11.33 -0.98 11.66 -2 12 C-1.85962479 10.18706911 -1.71255111 8.3746557 -1.5625 6.5625 C-1.48128906 5.55316406 -1.40007812 4.54382812 -1.31640625 3.50390625 C-1 1 -1 1 0 0 Z " fill="#197B3F" transform="translate(77,36)"/>
<path d="M0 0 C0.99 0.33 1.98 0.66 3 1 C3 2.65 3 4.3 3 6 C3.66 6 4.32 6 5 6 C5 6.66 5 7.32 5 8 C2 10 2 10 0 11 C-1.05404945 7.01803543 -0.84098656 4.01804691 0 0 Z " fill="#DD9F59" transform="translate(62,50)"/>
<path d="M0 0 C0.99 0.33 1.98 0.66 3 1 C3 2.65 3 4.3 3 6 C2.34 6 1.68 6 1 6 C1 7.65 1 9.3 1 11 C0.67 11 0.34 11 0 11 C0 9.02 0 7.04 0 5 C-0.66 5 -1.32 5 -2 5 C-2 4.34 -2 3.68 -2 3 C-1.34 3 -0.68 3 0 3 C0 2.01 0 1.02 0 0 Z " fill="#DE9646" transform="translate(64,81)"/>
<path d="M0 0 C2.475 0.99 2.475 0.99 5 2 C4.34 4.64 3.68 7.28 3 10 C1.5 8.9375 1.5 8.9375 0 7 C-0.1875 3.3125 -0.1875 3.3125 0 0 Z " fill="#E8A776" transform="translate(45,76)"/>
<path d="M0 0 C0.66 0 1.32 0 2 0 C2.22786458 2.01822917 2.45572917 4.03645833 2.68359375 6.0546875 C2.91292961 8.07404316 2.91292961 8.07404316 4 10 C2.68 10.33 1.36 10.66 0 11 C0 7.37 0 3.74 0 0 Z " fill="#167F44" transform="translate(76,73)"/>
<path d="M0 0 C0.66 0 1.32 0 2 0 C2 3.63 2 7.26 2 11 C1.34 11 0.68 11 0 11 C-1.37432457 7.18243176 -0.67975039 3.92744671 0 0 Z " fill="#CE7A40" transform="translate(69,52)"/>
<path d="M0 0 C0 0.66 0 1.32 0 2 C2.97 2.495 2.97 2.495 6 3 C6 3.33 6 3.66 6 4 C4.02 4 2.04 4 0 4 C-0.33 4.66 -0.66 5.32 -1 6 C-1.66 5.01 -2.32 4.02 -3 3 C-5.05003955 1.80767387 -5.05003955 1.80767387 -7 1 C-4.53721199 -0.231394 -2.7204945 -0.07159196 0 0 Z " fill="#87BD9E" transform="translate(84,33)"/>
<path d="M0 0 C0.99 0.33 1.98 0.66 3 1 C3 3.31 3 5.62 3 8 C2.34 7.67 1.68 7.34 1 7 C0.34 7.66 -0.32 8.32 -1 9 C-1.09765625 2.84765625 -1.09765625 2.84765625 -1 1 C-0.67 0.67 -0.34 0.34 0 0 Z " fill="#DD853D" transform="translate(67,35)"/>
<path d="M0 0 C0.99 0.33 1.98 0.66 3 1 C4.1875 4.0625 4.1875 4.0625 5 7 C2.69 7 0.38 7 -2 7 C-1.01 6.67 -0.02 6.34 1 6 C0.67 4.02 0.34 2.04 0 0 Z " fill="#29824E" transform="translate(91,40)"/>
<path d="M0 0 C1.32 0.33 2.64 0.66 4 1 C4 2.65 4 4.3 4 6 C2.68 6 1.36 6 0 6 C0 4.02 0 2.04 0 0 Z " fill="#7BCC9C" transform="translate(95,75)"/>
<path d="M0 0 C1.0625 1.875 1.0625 1.875 2 4 C1.67 4.66 1.34 5.32 1 6 C-0.32 6 -1.64 6 -3 6 C-4.75 3.5 -4.75 3.5 -6 1 C-3.525 1.495 -3.525 1.495 -1 2 C-0.67 1.34 -0.34 0.68 0 0 Z " fill="#BABFC3" transform="translate(48,36)"/>
<path d="M0 0 C2.31 0 4.62 0 7 0 C7 0.66 7 1.32 7 2 C5.35 2 3.7 2 2 2 C2.33 4.31 2.66 6.62 3 9 C2.34 9 1.68 9 1 9 C0.67 6.03 0.34 3.06 0 0 Z " fill="#26774A" transform="translate(84,37)"/>
<path d="M0 0 C1.98 0 3.96 0 6 0 C6.33 1.98 6.66 3.96 7 6 C6.01 5.67 5.02 5.34 4 5 C4 4.01 4 3.02 4 2 C2.68 2 1.36 2 0 2 C0 1.34 0 0.68 0 0 Z " fill="#D57B41" transform="translate(48,83)"/>
<path d="M0 0 C0.66 0.33 1.32 0.66 2 1 C1.625 2.9375 1.625 2.9375 1 5 C0.01 5.495 0.01 5.495 -1 6 C-1.66 5.67 -2.32 5.34 -3 5 C-2.625 3.0625 -2.625 3.0625 -2 1 C-1.34 0.67 -0.68 0.34 0 0 Z " fill="#868C90" transform="translate(100,36)"/>
<path d="M0 0 C2 3 2 3 1.625 5.6875 C1.41875 6.450625 1.2125 7.21375 1 8 C0.01 8 -0.98 8 -2 8 C-2 6.35 -2 4.7 -2 3 C-1.34 3 -0.68 3 0 3 C0 2.01 0 1.02 0 0 Z " fill="#F9BF7C" transform="translate(67,84)"/>
<path d="M0 0 C0.33 0 0.66 0 1 0 C1 2.97 1 5.94 1 9 C1.66 9 2.32 9 3 9 C3 9.99 3 10.98 3 12 C2.01 12.33 1.02 12.66 0 13 C0 8.71 0 4.42 0 0 Z " fill="#DF9C50" transform="translate(50,59)"/>
<path d="M0 0 C0.99 0 1.98 0 3 0 C3 1.98 3 3.96 3 6 C2.01 6 1.02 6 0 6 C0 4.02 0 2.04 0 0 Z " fill="#B4E8C5" transform="translate(77,84)"/>
<path d="M0 0 C1.98 0.66 3.96 1.32 6 2 C5.67 2.66 5.34 3.32 5 4 C4.34 4 3.68 4 3 4 C2.67 5.32 2.34 6.64 2 8 C1.814375 6.824375 1.814375 6.824375 1.625 5.625 C1.20882007 2.85942178 1.20882007 2.85942178 -1 1 C-0.67 0.67 -0.34 0.34 0 0 Z " fill="#D67C3B" transform="translate(44,73)"/>
<path d="M0 0 C0.66 0 1.32 0 2 0 C2 2.31 2 4.62 2 7 C1.01 7.495 1.01 7.495 0 8 C-0.99 7.34 -1.98 6.68 -3 6 C-2.01 6 -1.02 6 0 6 C0 4.02 0 2.04 0 0 Z " fill="#429F69" transform="translate(80,66)"/>
<path d="M0 0 C0.99 0 1.98 0 3 0 C3 1.98 3 3.96 3 6 C2.01 6 1.02 6 0 6 C0 4.02 0 2.04 0 0 Z " fill="#BEEFCF" transform="translate(93,66)"/>
<path d="M0 0 C0.99 0 1.98 0 3 0 C3 1.98 3 3.96 3 6 C2.01 6 1.02 6 0 6 C0 4.02 0 2.04 0 0 Z " fill="#BAEBCC" transform="translate(77,66)"/>
<path d="M0 0 C0.99 0 1.98 0 3 0 C3 1.98 3 3.96 3 6 C2.01 6 1.02 6 0 6 C0 4.02 0 2.04 0 0 Z " fill="#C3EED3" transform="translate(85,66)"/>
<path d="M0 0 C0.99 0 1.98 0 3 0 C3 1.98 3 3.96 3 6 C2.01 6 1.02 6 0 6 C0 4.02 0 2.04 0 0 Z " fill="#BCF1CA" transform="translate(98,57)"/>
<path d="M0 0 C0.99 0 1.98 0 3 0 C3 1.98 3 3.96 3 6 C2.01 6 1.02 6 0 6 C0 4.02 0 2.04 0 0 Z " fill="#78C39B" transform="translate(95,57)"/>
<path d="M0 0 C0.99 0 1.98 0 3 0 C3 1.98 3 3.96 3 6 C2.01 6 1.02 6 0 6 C0 4.02 0 2.04 0 0 Z " fill="#C1EED2" transform="translate(90,57)"/>
<path d="M0 0 C0.99 0 1.98 0 3 0 C3 1.98 3 3.96 3 6 C2.01 6 1.02 6 0 6 C0 4.02 0 2.04 0 0 Z " fill="#BAEDCF" transform="translate(82,57)"/>
<path d="M0 0 C1.32 0 2.64 0 4 0 C4 1.32 4 2.64 4 4 C2.68 4.33 1.36 4.66 0 5 C0 3.35 0 1.7 0 0 Z " fill="#F1A652" transform="translate(58,39)"/>
<path d="M0 0 C0 1.32 0 2.64 0 4 C-1.65 3.67 -3.3 3.34 -5 3 C-5 2.34 -5 1.68 -5 1 C-3 0 -3 0 0 0 Z " fill="#197C48" transform="translate(82,90)"/>
<path d="M0 0 C0.99 0 1.98 0 3 0 C3 1.98 3 3.96 3 6 C2.01 5.67 1.02 5.34 0 5 C0 3.35 0 1.7 0 0 Z " fill="#BCEECF" transform="translate(82,75)"/>
<path d="M0 0 C0.33 0 0.66 0 1 0 C1.66 3.63 2.32 7.26 3 11 C2.01 11 1.02 11 0 11 C0 7.37 0 3.74 0 0 Z " fill="#F3A85E" transform="translate(67,37)"/>
<path d="" fill="#FFFFFF" transform="translate(0,0)"/>
<path d="" fill="#FFFFFF" transform="translate(0,0)"/>
<path d="" fill="#FFFFFF" transform="translate(0,0)"/>
</svg>
